# xmcd CD database file
#
# Track frame offsets:
#	150
#	17046
#	34537
#	51620
#	65229
#	85157
#	100961
#	115242
#	131775
#	145634
#
# Disc length: 2160 seconds
#
# Revision: 0
# Processed by: cddbd v1.5.2PL0 Copyright (c) Steve Scherf et al.
# Submitted via: CDex 1.70beta2
#
DISCID=8e086e0a
DTITLE=The Earl Sanders, Jr. Band - Earl Sanders
DYEAR=1999
DGENRE=Country
TTITLE0=Gulf Coast Hurricane
TTITLE1=Love Gets Better Every Time
TTITLE2=That's What She Told Me
TTITLE3=San Marcos
TTITLE4=Pistol Pete
TTITLE5=I Was Born In Texas
TTITLE6=Pappaw Duncan
TTITLE7=Nagging Curiosity
TTITLE8=The Loser
TTITLE9=Carry Me
EXTD=YEAR: 1999
EXTT0=
EXTT1=
EXTT2=
EXTT3=
EXTT4=
EXTT5=
EXTT6=
EXTT7=
EXTT8=
EXTT9=
PLAYORDER=
